<?xml version="1.0" standalone="no"?><!DOCTYPE svg PUBLIC "-//W3C//DTD SVG 1.1//EN" "http://www.w3.org/Graphics/SVG/1.1/DTD/svg11.dtd"><svg class="icon" width="200px" height="200.00px" viewBox="0 0 1024 1024" version="1.1" xmlns="http://www.w3.org/2000/svg"><path fill="#ffffff" d="M844.8 128H179.2c-46.933333 0-85.333333 38.4-85.333333 85.333333v490.666667c0 46.933333 38.4 85.333333 85.333333 85.333333h102.4c12.8 0 21.333333-8.533333 21.333333-21.333333s-8.533333-21.333333-21.333333-21.333333H179.2c-23.466667 0-42.666667-19.2-42.666667-42.666667V213.333333c0-23.466667 19.2-42.666667 42.666667-42.666666h663.466667c23.466667 0 42.666667 19.2 42.666666 42.666666v490.666667c0 23.466667-19.2 42.666667-42.666666 42.666667h-204.8-2.133334c-6.4 0-12.8 0-17.066666 4.266666l-106.666667 93.866667-106.666667-93.866667c-8.533333-8.533333-21.333333-6.4-29.866666 2.133334-8.533333 8.533333-6.4 21.333333 2.133333 29.866666l119.466667 106.666667c4.266667 4.266667 8.533333 6.4 14.933333 6.4s10.666667-2.133333 14.933333-6.4l115.2-102.4h202.666667c46.933333 0 85.333333-38.4 85.333333-85.333333V213.333333c0-46.933333-38.4-85.333333-85.333333-85.333333zM518.4 610.133333c-8.533333 0-17.066667 2.133333-21.333333 8.533334-6.4 6.4-8.533333 12.8-8.533334 21.333333s2.133333 14.933333 8.533334 21.333333c6.4 6.4 12.8 8.533333 21.333333 8.533334s14.933333-2.133333 21.333333-8.533334c6.4-6.4 8.533333-12.8 8.533334-21.333333s-2.133333-14.933333-8.533334-21.333333c-4.266667-4.266667-12.8-8.533333-21.333333-8.533334z m6.4-330.666666c-36.266667 0-64 10.666667-85.333333 32-14.933333 17.066667-25.6 36.266667-29.866667 61.866666-2.133333 10.666667 6.4 21.333333 19.2 21.333334h2.133333c8.533333 0 17.066667-6.4 19.2-17.066667 2.133333-17.066667 6.4-29.866667 14.933334-40.533333 12.8-17.066667 32-23.466667 57.6-23.466667 21.333333 0 38.4 6.4 51.2 17.066667 10.666667 10.666667 17.066667 25.6 17.066666 46.933333 0 12.8-4.266667 27.733333-14.933333 38.4-4.266667 4.266667-8.533333 10.666667-17.066667 17.066667-27.733333 23.466667-44.8 42.666667-51.2 57.6-6.4 12.8-10.666667 27.733333-10.666666 42.666666v12.8c0 10.666667 8.533333 19.2 21.333333 19.2 10.666667 0 21.333333-8.533333 21.333333-19.2V533.333333c0-12.8 2.133333-25.6 10.666667-36.266666 4.266667-8.533333 12.8-17.066667 23.466667-27.733334 23.466667-19.2 36.266667-32 42.666666-38.4 12.8-17.066667 19.2-36.266667 19.2-57.6 0-29.866667-10.666667-53.333333-27.733333-70.4-23.466667-14.933333-49.066667-23.466667-83.2-23.466666z" /></svg>