<?xml version="1.0" standalone="no"?><!DOCTYPE svg PUBLIC "-//W3C//DTD SVG 1.1//EN" "http://www.w3.org/Graphics/SVG/1.1/DTD/svg11.dtd"><svg t="1532930064598" class="icon" style="" viewBox="0 0 1024 1024" version="1.1" xmlns="http://www.w3.org/2000/svg" p-id="1440" xmlns:xlink="http://www.w3.org/1999/xlink" width="200" height="200"><defs><style type="text/css"></style></defs><path d="M511.691473 959.101921c-119.512954 0-231.80239-46.535873-316.322365-131.006729C110.852202 743.622288 64.363402 631.283734 64.363402 511.819898c0-119.512954 46.488801-231.803413 131.005706-316.323389C279.842011 110.956068 392.179542 64.444754 511.691473 64.444754c119.509884 0 231.804437 46.511313 316.321342 131.051755 84.562954 84.519975 131.006729 196.810435 131.006729 316.323389 0 119.511931-46.535873 231.80239-131.006729 316.275293C743.541959 912.566048 631.201357 959.101921 511.691473 959.101921zM511.691473 111.532189c-220.675982 0-400.240637 179.544189-400.240637 400.240637 0 220.719984 179.564655 400.240637 400.240637 400.240637 220.719984 0 400.240637-179.520653 400.240637-400.240637C911.93211 291.076378 732.411457 111.532189 511.691473 111.532189z" p-id="1441" fill="#ffffff"></path><path d="M747.128647 394.054751 276.255323 394.054751c-13.013385 0-23.543206-10.553357-23.543206-23.543206 0-12.990872 10.529821-23.544229 23.543206-23.544229l470.873324 0c12.964266 0 23.543206 10.553357 23.543206 23.544229C770.671852 383.501394 760.092913 394.054751 747.128647 394.054751z" p-id="1442" fill="#ffffff"></path><path d="M747.128647 535.316032 276.255323 535.316032c-13.013385 0-23.543206-10.576893-23.543206-23.543206 0-12.989849 10.529821-23.544229 23.543206-23.544229l470.873324 0c12.964266 0 23.543206 10.553357 23.543206 23.544229C770.671852 524.739139 760.092913 535.316032 747.128647 535.316032z" p-id="1443" fill="#ffffff"></path><path d="M747.128647 676.579359 276.255323 676.579359c-13.013385 0-23.543206-10.577916-23.543206-23.544229 0-12.969383 10.529821-23.545252 23.543206-23.545252l470.873324 0c12.964266 0 23.543206 10.57587 23.543206 23.545252C770.671852 666.001443 760.092913 676.579359 747.128647 676.579359z" p-id="1444" fill="#ffffff"></path></svg>
