<?xml version="1.0" standalone="no"?><!DOCTYPE svg PUBLIC "-//W3C//DTD SVG 1.1//EN" "http://www.w3.org/Graphics/SVG/1.1/DTD/svg11.dtd"><svg t="1532061770845" class="icon" style="" viewBox="0 0 1025 1024" version="1.1" xmlns="http://www.w3.org/2000/svg" p-id="1633" xmlns:xlink="http://www.w3.org/1999/xlink" width="200.1953125" height="200"><defs><style type="text/css"></style></defs><path d="M150.785576 149.276523C228.480718 71.581381 328.673402 21.185039 439.359854 5.28626c135.307748-19.418786 270.142995 15.050028 379.566945 97.012678 109.4477 81.98765 180.42533 201.680369 199.862866 337.011867 40.132573 279.463012-154.612783 539.369738-433.934545 579.526061-117.130214 16.807531-237.231684-7.733764-338.200619-69.036376-17.270032-10.498769-22.753792-32.99881-12.280022-50.240092 10.571269-17.138781 32.96381-22.777542 50.235092-12.278772 86.488908 52.568846 189.424097 73.587635 289.853031 59.153858 239.370438-34.330063 406.295744-257.161721 371.934431-496.72841C929.748252 333.715611 868.906891 231.137923 775.080469 160.887795 681.271547 90.608916 565.717586 61.107612 449.756124 77.782642 210.121935 112.122705 43.276629 334.980613 77.689192 574.492302c9.018767 62.700115 30.791306 121.293972 64.795119 174.116569 10.90877 17.016281 5.947511 39.716323-10.93752 50.546343-16.986281 10.93752-39.638823 6.026261-50.546343-10.93752C41.307876 726.45133 15.864079 658.091205 5.29156 584.888571c-19.418786-135.312748 15.025028-270.181745 97.066428-379.629445C117.279265 185.267839 133.463044 166.601555 150.785576 149.276523L150.785576 149.276523 150.785576 149.276523zM150.785576 149.276523" p-id="1634" fill="#13227a"></path><path d="M442.087359 761.221394c-9.966268 0-19.583786-3.836257-26.822549-10.77252L208.769432 552.689762c-15.468778-14.815027-16.000029-39.363822-1.186252-54.82885 14.813777-15.468778 39.365072-16.000029 54.8326-1.185002l176.297823 168.840309 319.783086-388.599462c13.607525-16.53503 38.04632-18.911285 54.58635-5.30001 16.54003 13.607525 18.912535 38.04632 5.30501 54.5851L472.033664 747.083868c-6.855013 8.336265-16.877531 13.431275-27.651301 14.073776-0.766251 0.0425-1.532503 0.065-2.300004 0.065L442.087359 761.222644zM442.087359 761.221394" p-id="1635" fill="#13227a"></path></svg>