<?xml version="1.0" standalone="no"?><!DOCTYPE svg PUBLIC "-//W3C//DTD SVG 1.1//EN" "http://www.w3.org/Graphics/SVG/1.1/DTD/svg11.dtd"><svg t="1533541409151" class="icon" style="" viewBox="0 0 1050 1024" version="1.1" xmlns="http://www.w3.org/2000/svg" p-id="4301" xmlns:xlink="http://www.w3.org/1999/xlink" width="205.078125" height="200"><defs><style type="text/css"></style></defs><path d="M700.006985 132.490872a67.302111 67.302111 0 0 0 0 96.726464 70.22829 70.22829 0 0 0 97.539292 0 67.302111 67.302111 0 0 0 0-96.726464 70.390856 70.390856 0 0 0-97.539292 0z m63.40054 61.774884a21.296079 21.296079 0 0 1-29.424353 0 18.532465 18.532465 0 0 1 0-26.823305 21.296079 21.296079 0 0 1 29.424353 0 18.532465 18.532465 0 0 1 0 26.823305z" p-id="4302"></path><path d="M1030.502619 239.784093L803.886331 19.345293a69.090332 69.090332 0 0 0-95.751071 0L20.15812 689.115098a66.164153 66.164153 0 0 0 0 95.100809L246.611843 1004.654707a69.090332 69.090332 0 0 0 95.751072 0l688.139704-669.769805a66.164153 66.164153 0 0 0 0-95.100809z m-33.976186 60.14923l-41.291634 40.153675-90.38641-89.085887a24.384823 24.384823 0 1 0-34.301318 34.789014L920.28322 373.900619l-60.311796 58.848706-99.977774-98.67725a24.384823 24.384823 0 1 0-34.301318 34.789014l99.327512 97.539292L764.057787 525.411653l-118.185109-116.559454a24.384823 24.384823 0 1 0-34.301317 34.789014l117.534846 115.746626L669.607239 617.748849 601.4923 550.934434A24.384823 24.384823 0 0 0 567.028417 585.235752L634.005398 652.212732l-60.311796 58.686141-153.949516-151.836165a24.384823 24.384823 0 0 0-34.301317 34.789014l153.299254 151.023338-60.311796 58.68614L390.157168 715.288141a24.384823 24.384823 0 0 0-34.301318 34.789014l88.760756 87.460232-60.311796 58.686141-105.667566-104.204477A24.384823 24.384823 0 1 0 243.84823 826.808065l105.017304 103.391649L308.874425 969.703127a19.995555 19.995555 0 0 1-27.798699 0L54.134307 749.264328a17.394507 17.394507 0 0 1 0-25.197651l688.139705-669.769804a19.995555 19.995555 0 0 1 27.798698 0L996.363867 274.735672a17.394507 17.394507 0 0 1 0 25.197651z" p-id="4303"></path></svg>
