<?xml version="1.0" standalone="no"?><!DOCTYPE svg PUBLIC "-//W3C//DTD SVG 1.1//EN" "http://www.w3.org/Graphics/SVG/1.1/DTD/svg11.dtd"><svg t="1533525854902" class="icon" style="" viewBox="0 0 1024 1024" version="1.1" xmlns="http://www.w3.org/2000/svg" p-id="2820" xmlns:xlink="http://www.w3.org/1999/xlink" width="200" height="200"><defs><style type="text/css"></style></defs><path d="M512 128a170.666667 170.666667 0 0 1 170.666667 170.666667c0 31.146667-8.106667 60.16-23.04 85.333333H768c40.533333 0 74.666667 28.586667 83.2 66.56C936.96 792.32 938.666667 801.28 938.666667 810.666667a85.333333 85.333333 0 0 1-85.333334 85.333333H170.666667a85.333333 85.333333 0 0 1-85.333334-85.333333c0-9.386667 1.706667-18.346667 87.466667-360.106667C181.333333 412.586667 215.466667 384 256 384h108.373333A165.973333 165.973333 0 0 1 341.333333 298.666667a170.666667 170.666667 0 0 1 170.666667-170.666667m0 85.333333a85.333333 85.333333 0 0 0-85.333333 85.333334 85.333333 85.333333 0 0 0 85.333333 85.333333 85.333333 85.333333 0 0 0 85.333333-85.333333 85.333333 85.333333 0 0 0-85.333333-85.333334z" fill="" p-id="2821"></path></svg>